# xmcd
# 
# Track frame offsets:
#     150
#     16587
#     31655
#     44269
#     57908
#     72069
#     85765
#     100200
#     114568
#     131490
#     145296
#     160598
#     178018
#     193831
#     207748
#     222738
#     237860
#     252131
#     265676
#     278542
#     292841
# 
# Disc length: 4090
# 
# Revision: 1
# Processed by: cddbd v1.5.2PL0 Copyright (c) Steve Scherf et al.
# Submitted via: fre:ac v1.0.31
# 
DISCID=270ff815
DTITLE=Big Bill Broonzy - Big Bill Broonzy - Volume 6
DYEAR=1998
DGENRE=Blues
TTITLE0=Good Doing Daddy - A
TTITLE1=Good Doing Daddy - B
TTITLE2=It Was No Dream
TTITLE3=Louise
TTITLE4=Dancing The Blues Away
TTITLE5=Hoodoo Blues
TTITLE6=Run Away Blues
TTITLE7=Troblesoùe Mind
TTITLE8=I Want To See My Baby
TTITLE9=Serve It To Me Right
TTITLE10=Dirty No-Gooder
TTITLE11=Let Her Go- She Don't Knpw
TTITLE12=Hobo Blues
TTITLE13=Prowlin' Good Hog
TTITLE14=C-C Rider - A
TTITLE15=C-C Rider - B
TTITLE16=Mobile And Western Line
TTITLE17=Crazy About You
TTITLE18=Sweet To Mama
TTITLE19=Rustlin' Man
TTITLE20=She Caught The Train
EXTD=
EXTT0=
EXTT1=
EXTT2=
EXTT3=
EXTT4=
EXTT5=
EXTT6=
EXTT7=
EXTT8=
EXTT9=
EXTT10=
EXTT11=
EXTT12=
EXTT13=
EXTT14=
EXTT15=
EXTT16=
EXTT17=
EXTT18=
EXTT19=
EXTT20=
PLAYORDER=
